<svg width="398" height="80" viewBox="0 0 398 80" fill="none" xmlns="http://www.w3.org/2000/svg">
<path d="M107.1 60V25.3H111.8V60H107.1ZM110.3 44.75V40.45H128.4V44.75H110.3ZM110.3 29.6V25.3H129.25V29.6H110.3ZM159.693 60.5C157.326 60.5 155.193 59.9667 153.293 58.9C151.393 57.8 149.893 56.3167 148.793 54.45C147.693 52.5833 147.143 50.4667 147.143 48.1C147.143 45.7667 147.676 43.6667 148.743 41.8C149.843 39.9333 151.309 38.4667 153.143 37.4C155.009 36.3 157.093 35.75 159.393 35.75C161.593 35.75 163.526 36.25 165.193 37.25C166.893 38.25 168.209 39.6333 169.143 41.4C170.109 43.1667 170.593 45.1667 170.593 47.4C170.593 47.7333 170.576 48.1 170.543 48.5C170.509 48.8667 170.443 49.3 170.343 49.8H150.293V46.05H167.943L166.293 47.5C166.293 45.9 166.009 44.55 165.443 43.45C164.876 42.3167 164.076 41.45 163.043 40.85C162.009 40.2167 160.759 39.9 159.293 39.9C157.759 39.9 156.409 40.2333 155.243 40.9C154.076 41.5667 153.176 42.5 152.543 43.7C151.909 44.9 151.593 46.3167 151.593 47.95C151.593 49.6167 151.926 51.0833 152.593 52.35C153.259 53.5833 154.209 54.55 155.443 55.25C156.676 55.9167 158.093 56.25 159.693 56.25C161.026 56.25 162.243 56.0167 163.343 55.55C164.476 55.0833 165.443 54.3833 166.243 53.45L169.143 56.4C168.009 57.7333 166.609 58.75 164.943 59.45C163.309 60.15 161.559 60.5 159.693 60.5ZM207.299 60V46.15C207.299 44.35 206.733 42.8667 205.599 41.7C204.466 40.5333 202.999 39.95 201.199 39.95C199.999 39.95 198.933 40.2167 197.999 40.75C197.066 41.2833 196.333 42.0167 195.799 42.95C195.266 43.8833 194.999 44.95 194.999 46.15L193.149 45.1C193.149 43.3 193.549 41.7 194.349 40.3C195.149 38.9 196.266 37.8 197.699 37C199.133 36.1667 200.749 35.75 202.549 35.75C204.349 35.75 205.933 36.2 207.299 37.1C208.699 38 209.799 39.1833 210.599 40.65C211.399 42.0833 211.799 43.6167 211.799 45.25V60H207.299ZM190.499 60V36.25H194.999V60H190.499ZM242.992 60.5C240.825 60.5 238.858 59.9667 237.092 58.9C235.325 57.8 233.925 56.3167 232.892 54.45C231.892 52.5833 231.392 50.4833 231.392 48.15C231.392 45.8167 231.892 43.7167 232.892 41.85C233.925 39.9833 235.308 38.5 237.042 37.4C238.808 36.3 240.792 35.75 242.992 35.75C244.792 35.75 246.392 36.1333 247.792 36.9C249.225 37.6333 250.375 38.6667 251.242 40C252.108 41.3 252.592 42.8167 252.692 44.55V51.7C252.592 53.4 252.108 54.9167 251.242 56.25C250.408 57.5833 249.275 58.6333 247.842 59.4C246.442 60.1333 244.825 60.5 242.992 60.5ZM243.742 56.25C245.975 56.25 247.775 55.5 249.142 54C250.508 52.4667 251.192 50.5167 251.192 48.15C251.192 46.5167 250.875 45.1 250.242 43.9C249.642 42.6667 248.775 41.7167 247.642 41.05C246.508 40.35 245.192 40 243.692 40C242.192 40 240.858 40.35 239.692 41.05C238.558 41.75 237.658 42.7167 236.992 43.95C236.358 45.15 236.042 46.5333 236.042 48.1C236.042 49.7 236.358 51.1167 236.992 52.35C237.658 53.55 238.575 54.5 239.742 55.2C240.908 55.9 242.242 56.25 243.742 56.25ZM250.892 60V53.6L251.742 47.8L250.892 42.05V36.25H255.442V60H250.892ZM276.993 60V36.25H281.493V60H276.993ZM293.043 60V45.65C293.043 43.8833 292.493 42.5 291.393 41.5C290.327 40.4667 288.977 39.95 287.343 39.95C286.243 39.95 285.26 40.1833 284.393 40.65C283.527 41.1167 282.827 41.7667 282.293 42.6C281.76 43.4333 281.493 44.4333 281.493 45.6L279.643 44.7C279.643 42.9 280.027 41.3333 280.793 40C281.593 38.6667 282.677 37.6333 284.043 36.9C285.41 36.1333 286.943 35.75 288.643 35.75C290.31 35.75 291.81 36.1167 293.143 36.85C294.51 37.5833 295.577 38.6167 296.343 39.95C297.143 41.2833 297.543 42.8667 297.543 44.7V60H293.043ZM309.093 60V45.65C309.093 43.8833 308.543 42.5 307.443 41.5C306.377 40.4667 305.043 39.95 303.443 39.95C302.343 39.95 301.343 40.1833 300.443 40.65C299.577 41.1167 298.877 41.7667 298.343 42.6C297.81 43.4333 297.543 44.4333 297.543 45.6L294.993 44.7C295.093 42.8667 295.577 41.3 296.443 40C297.343 38.6667 298.493 37.6333 299.893 36.9C301.293 36.1333 302.827 35.75 304.493 35.75C306.227 35.75 307.777 36.1167 309.143 36.85C310.51 37.5833 311.593 38.6167 312.393 39.95C313.227 41.2833 313.643 42.8833 313.643 44.75V60H309.093ZM344.867 60.5C342.7 60.5 340.733 59.9667 338.967 58.9C337.2 57.8 335.8 56.3167 334.767 54.45C333.767 52.5833 333.267 50.4833 333.267 48.15C333.267 45.8167 333.767 43.7167 334.767 41.85C335.8 39.9833 337.183 38.5 338.917 37.4C340.683 36.3 342.667 35.75 344.867 35.75C346.667 35.75 348.267 36.1333 349.667 36.9C351.1 37.6333 352.25 38.6667 353.117 40C353.983 41.3 354.467 42.8167 354.567 44.55V51.7C354.467 53.4 353.983 54.9167 353.117 56.25C352.283 57.5833 351.15 58.6333 349.717 59.4C348.317 60.1333 346.7 60.5 344.867 60.5ZM345.617 56.25C347.85 56.25 349.65 55.5 351.017 54C352.383 52.4667 353.067 50.5167 353.067 48.15C353.067 46.5167 352.75 45.1 352.117 43.9C351.517 42.6667 350.65 41.7167 349.517 41.05C348.383 40.35 347.067 40 345.567 40C344.067 40 342.733 40.35 341.567 41.05C340.433 41.75 339.533 42.7167 338.867 43.95C338.233 45.15 337.917 46.5333 337.917 48.1C337.917 49.7 338.233 51.1167 338.867 52.35C339.533 53.55 340.45 54.5 341.617 55.2C342.783 55.9 344.117 56.25 345.617 56.25ZM352.767 60V53.6L353.617 47.8L352.767 42.05V36.25H357.317V60H352.767ZM376.968 57.55L391.068 38.7H396.368L382.268 57.55H376.968ZM376.968 60V57.55L380.968 55.9H396.068V60H376.968ZM377.818 40.35V36.25H396.368V38.7L392.218 40.35H377.818Z" fill="#1E1E1E"/>
<path d="M7.5 8V58L46.5 8H7.5Z" stroke="#1E1E1E" stroke-width="15"/>
<path d="M20.5 51V36H52L40 51H20.5Z" fill="#1E1E1E"/>
<path d="M0 80V65H31.5L19.5 80H0Z" fill="#1E1E1E"/>
<path d="M19.5 80V65H51L39 80H19.5Z" fill="#1E1E1E"/>
<path d="M34.8 80L61.8 46V80H34.8Z" fill="#1E1E1E"/>
</svg>
