<svg width="398" height="80" viewBox="0 0 398 80" fill="none" xmlns="http://www.w3.org/2000/svg">
<path d="M107.1 60V25.3H111.8V60H107.1ZM110.3 44.75V40.45H128.4V44.75H110.3ZM110.3 29.6V25.3H129.25V29.6H110.3ZM159.644 60.5C157.277 60.5 155.144 59.9667 153.244 58.9C151.344 57.8 149.844 56.3167 148.744 54.45C147.644 52.5833 147.094 50.4667 147.094 48.1C147.094 45.7667 147.627 43.6667 148.694 41.8C149.794 39.9333 151.26 38.4667 153.094 37.4C154.96 36.3 157.044 35.75 159.344 35.75C161.544 35.75 163.477 36.25 165.144 37.25C166.844 38.25 168.16 39.6333 169.094 41.4C170.06 43.1667 170.544 45.1667 170.544 47.4C170.544 47.7333 170.527 48.1 170.494 48.5C170.46 48.8667 170.394 49.3 170.294 49.8H150.244V46.05H167.894L166.244 47.5C166.244 45.9 165.96 44.55 165.394 43.45C164.827 42.3167 164.027 41.45 162.994 40.85C161.96 40.2167 160.71 39.9 159.244 39.9C157.71 39.9 156.36 40.2333 155.194 40.9C154.027 41.5667 153.127 42.5 152.494 43.7C151.86 44.9 151.544 46.3167 151.544 47.95C151.544 49.6167 151.877 51.0833 152.544 52.35C153.21 53.5833 154.16 54.55 155.394 55.25C156.627 55.9167 158.044 56.25 159.644 56.25C160.977 56.25 162.194 56.0167 163.294 55.55C164.427 55.0833 165.394 54.3833 166.194 53.45L169.094 56.4C167.96 57.7333 166.56 58.75 164.894 59.45C163.26 60.15 161.51 60.5 159.644 60.5ZM207.25 60V46.15C207.25 44.35 206.684 42.8667 205.55 41.7C204.417 40.5333 202.95 39.95 201.15 39.95C199.95 39.95 198.884 40.2167 197.95 40.75C197.017 41.2833 196.284 42.0167 195.75 42.95C195.217 43.8833 194.95 44.95 194.95 46.15L193.1 45.1C193.1 43.3 193.5 41.7 194.3 40.3C195.1 38.9 196.217 37.8 197.65 37C199.084 36.1667 200.7 35.75 202.5 35.75C204.3 35.75 205.884 36.2 207.25 37.1C208.65 38 209.75 39.1833 210.55 40.65C211.35 42.0833 211.75 43.6167 211.75 45.25V60H207.25ZM190.45 60V36.25H194.95V60H190.45ZM242.943 60.5C240.776 60.5 238.81 59.9667 237.043 58.9C235.276 57.8 233.876 56.3167 232.843 54.45C231.843 52.5833 231.343 50.4833 231.343 48.15C231.343 45.8167 231.843 43.7167 232.843 41.85C233.876 39.9833 235.26 38.5 236.993 37.4C238.76 36.3 240.743 35.75 242.943 35.75C244.743 35.75 246.343 36.1333 247.743 36.9C249.176 37.6333 250.326 38.6667 251.193 40C252.06 41.3 252.543 42.8167 252.643 44.55V51.7C252.543 53.4 252.06 54.9167 251.193 56.25C250.36 57.5833 249.226 58.6333 247.793 59.4C246.393 60.1333 244.776 60.5 242.943 60.5ZM243.693 56.25C245.926 56.25 247.726 55.5 249.093 54C250.46 52.4667 251.143 50.5167 251.143 48.15C251.143 46.5167 250.826 45.1 250.193 43.9C249.593 42.6667 248.726 41.7167 247.593 41.05C246.46 40.35 245.143 40 243.643 40C242.143 40 240.81 40.35 239.643 41.05C238.51 41.75 237.61 42.7167 236.943 43.95C236.31 45.15 235.993 46.5333 235.993 48.1C235.993 49.7 236.31 51.1167 236.943 52.35C237.61 53.55 238.526 54.5 239.693 55.2C240.86 55.9 242.193 56.25 243.693 56.25ZM250.843 60V53.6L251.693 47.8L250.843 42.05V36.25H255.393V60H250.843ZM276.945 60V36.25H281.445V60H276.945ZM292.995 60V45.65C292.995 43.8833 292.445 42.5 291.345 41.5C290.278 40.4667 288.928 39.95 287.295 39.95C286.195 39.95 285.211 40.1833 284.345 40.65C283.478 41.1167 282.778 41.7667 282.245 42.6C281.711 43.4333 281.445 44.4333 281.445 45.6L279.595 44.7C279.595 42.9 279.978 41.3333 280.745 40C281.545 38.6667 282.628 37.6333 283.995 36.9C285.361 36.1333 286.895 35.75 288.595 35.75C290.261 35.75 291.761 36.1167 293.095 36.85C294.461 37.5833 295.528 38.6167 296.295 39.95C297.095 41.2833 297.495 42.8667 297.495 44.7V60H292.995ZM309.045 60V45.65C309.045 43.8833 308.495 42.5 307.395 41.5C306.328 40.4667 304.995 39.95 303.395 39.95C302.295 39.95 301.295 40.1833 300.395 40.65C299.528 41.1167 298.828 41.7667 298.295 42.6C297.761 43.4333 297.495 44.4333 297.495 45.6L294.945 44.7C295.045 42.8667 295.528 41.3 296.395 40C297.295 38.6667 298.445 37.6333 299.845 36.9C301.245 36.1333 302.778 35.75 304.445 35.75C306.178 35.75 307.728 36.1167 309.095 36.85C310.461 37.5833 311.545 38.6167 312.345 39.95C313.178 41.2833 313.595 42.8833 313.595 44.75V60H309.045ZM344.818 60.5C342.651 60.5 340.685 59.9667 338.918 58.9C337.151 57.8 335.751 56.3167 334.718 54.45C333.718 52.5833 333.218 50.4833 333.218 48.15C333.218 45.8167 333.718 43.7167 334.718 41.85C335.751 39.9833 337.135 38.5 338.868 37.4C340.635 36.3 342.618 35.75 344.818 35.75C346.618 35.75 348.218 36.1333 349.618 36.9C351.051 37.6333 352.201 38.6667 353.068 40C353.935 41.3 354.418 42.8167 354.518 44.55V51.7C354.418 53.4 353.935 54.9167 353.068 56.25C352.235 57.5833 351.101 58.6333 349.668 59.4C348.268 60.1333 346.651 60.5 344.818 60.5ZM345.568 56.25C347.801 56.25 349.601 55.5 350.968 54C352.335 52.4667 353.018 50.5167 353.018 48.15C353.018 46.5167 352.701 45.1 352.068 43.9C351.468 42.6667 350.601 41.7167 349.468 41.05C348.335 40.35 347.018 40 345.518 40C344.018 40 342.685 40.35 341.518 41.05C340.385 41.75 339.485 42.7167 338.818 43.95C338.185 45.15 337.868 46.5333 337.868 48.1C337.868 49.7 338.185 51.1167 338.818 52.35C339.485 53.55 340.401 54.5 341.568 55.2C342.735 55.9 344.068 56.25 345.568 56.25ZM352.718 60V53.6L353.568 47.8L352.718 42.05V36.25H357.268V60H352.718ZM376.92 57.55L391.02 38.7H396.32L382.22 57.55H376.92ZM376.92 60V57.55L380.92 55.9H396.02V60H376.92ZM377.77 40.35V36.25H396.32V38.7L392.17 40.35H377.77Z" fill="white"/>
<path d="M7.5 8V58L46.5 8H7.5Z" stroke="white" stroke-width="15"/>
<path d="M20.5 51V36H52L40 51H20.5Z" fill="white"/>
<path d="M0 80V65H31.5L19.5 80H0Z" fill="white"/>
<path d="M19.5 80V65H51L39 80H19.5Z" fill="white"/>
<path d="M34.8 80L61.8 46V80H34.8Z" fill="white"/>
</svg>
